<svg width="240" height="104" viewBox="0 0 240 104" fill="none" xmlns="http://www.w3.org/2000/svg">
<path fill-rule="evenodd" clip-rule="evenodd" d="M187.195 0C187.195 0 187.963 18.149 170.902 20.55V0H187.195Z" fill="white"/>
<mask id="mask0_26_506" style="mask-type:luminance" maskUnits="userSpaceOnUse" x="0" y="13" width="68" height="91">
<path d="M0.000144958 13.092H67.0656V103.1H0.000144958V13.092Z" fill="white"/>
</mask>
<g mask="url(#mask0_26_506)">
<path fill-rule="evenodd" clip-rule="evenodd" d="M67.0656 103.1H49.4926V46.765C49.4926 44.556 49.0766 42.507 48.2126 40.555C47.3796 38.602 46.2286 36.938 44.7876 35.497C43.3476 34.057 41.6506 32.937 39.7306 32.073C37.8096 31.241 35.7296 30.792 33.5206 30.792C31.3116 30.792 29.2636 31.208 27.3106 32.009C25.3576 32.809 23.6936 33.929 22.2536 35.37C20.8136 36.81 19.6926 38.475 18.8286 40.363C17.9646 42.251 17.5476 44.3 17.5476 46.509C17.5476 48.717 17.9646 50.766 18.7646 52.718C19.5646 54.671 20.6856 56.335 22.1256 57.776C23.5656 59.216 25.2306 60.336 27.1186 61.201C29.0076 62.033 31.0556 62.449 33.2646 62.449C37.0736 62.449 40.2746 61.392 42.8666 59.28V78.87C39.6666 79.798 36.3696 80.246 33.0086 80.246C28.4626 80.246 24.1416 79.35 20.1086 77.589C16.0756 75.829 12.5546 73.396 9.5456 70.323C6.5686 67.25 4.2006 63.665 2.4716 59.568C0.743598 55.471 -0.0884023 51.118 0.00759767 46.476C0.00759767 41.835 0.903597 37.514 2.6646 33.449C4.4246 29.416 6.8256 25.863 9.8656 22.822C12.9066 19.781 16.4276 17.412 20.4926 15.684C24.5256 13.955 28.8786 13.092 33.5206 13.092C38.1616 13.092 42.5146 13.988 46.6116 15.748C50.7096 17.509 54.2626 19.909 57.3026 22.95C60.3436 25.991 62.7126 29.544 64.4406 33.641C66.1696 37.738 67.0336 42.091 67.0336 46.733V103.1H67.0656Z" fill="white"/>
</g>
<path fill-rule="evenodd" clip-rule="evenodd" d="M168.725 43.0836C168.725 43.5956 168.757 44.1406 168.789 44.7166C168.822 45.2926 168.854 45.9006 168.854 46.4766V80.2456H151.025V46.8606C151.025 44.7486 150.737 42.7316 150.193 40.7796C149.648 38.8266 148.848 37.1296 147.791 35.6576C146.736 34.1856 145.455 33.0336 143.918 32.1686C142.382 31.3366 140.686 30.8886 138.734 30.8886C135.277 30.8886 132.587 32.3286 130.635 35.1776C128.683 38.0586 127.69 41.8036 127.594 46.4446V80.2136H110.021V46.8606C110.021 42.0596 109.061 38.1866 107.109 35.2736C105.156 32.3606 102.435 30.9206 98.8828 30.9206C97.0258 30.9206 95.3288 31.3366 93.8248 32.2006C92.3208 33.0336 91.0078 34.1856 89.9198 35.6256C88.8318 37.0656 87.9678 38.7626 87.3918 40.6836C86.8148 42.6356 86.4948 44.6526 86.4948 46.7646V80.2775H69.0498V46.4766C69.0498 41.8356 69.7868 37.5146 71.2588 33.4496C72.7308 29.4166 74.8118 25.8626 77.4688 22.8226C80.1248 19.7816 83.3258 17.4126 87.0708 15.6846C90.8158 13.9556 94.9768 13.0916 99.5228 13.0916C103.076 13.0916 106.469 13.9236 109.702 15.5566C112.934 17.1886 115.975 19.1096 118.76 21.3176C121.449 19.1416 124.393 17.2206 127.626 15.5566C130.828 13.9236 134.38 13.0916 138.253 13.0916C142.542 13.0916 146.48 13.8596 150.065 15.3646C153.65 16.8686 156.754 18.9806 159.347 21.7016C161.972 24.3906 164.052 27.5916 165.685 31.2406C167.317 34.9216 168.309 38.8586 168.725 43.0836Z" fill="white"/>
<path fill-rule="evenodd" clip-rule="evenodd" d="M223.332 30.7925C221.123 30.7925 219.075 31.2085 217.122 32.0725C215.17 32.9045 213.505 34.0575 212.064 35.4975C210.624 36.9385 209.504 38.6025 208.704 40.5555C207.903 42.5075 207.487 44.5565 207.487 46.7645C207.487 48.9735 207.903 51.0215 208.736 52.9745C209.568 54.9265 210.721 56.5915 212.161 58.0315C213.602 59.4725 215.266 60.5925 217.154 61.3925C219.043 62.1925 221.091 62.6085 223.3 62.6085H239.24V80.3095H223.3C218.658 80.3095 214.306 79.4455 210.272 77.7175C206.207 75.9885 202.686 73.6205 199.645 70.5795C196.604 67.5385 194.204 63.9855 192.443 59.8885C190.683 55.7915 189.787 51.4385 189.787 46.7965C189.787 42.1555 190.651 37.8025 192.38 33.7055C194.108 29.6075 196.477 26.0555 199.518 23.0145C202.559 19.9735 206.111 17.5725 210.208 15.8125C214.306 14.0515 218.658 13.1555 223.3 13.1555H239.24V30.8565H223.332V30.7925Z" fill="white"/>
<path fill-rule="evenodd" clip-rule="evenodd" d="M187.962 7.77832V80.2453H170.901V24.1343C179.769 23.5263 186.906 16.6123 187.962 7.77832Z" fill="white"/>
</svg>
